<svg xmlns="http://www.w3.org/2000/svg" xmlns:xlink="http://www.w3.org/1999/xlink" fill="none" version="1.1" width="56.00042724609375" height="56" viewBox="0 0 56.00042724609375 56"><g><g><g><path d="M0,32L0,3Q0,2.852619,0.014450000000000074,2.705949Q0.028890000000000082,2.559278,0.057640000000000136,2.414729Q0.08639999999999981,2.27018,0.12917999999999985,2.129146Q0.1719599999999999,1.98811,0.2283599999999999,1.85195Q0.2847599999999999,1.71579,0.3542399999999999,1.58581Q0.4237099999999998,1.45583,0.5055900000000002,1.33329Q0.5874700000000002,1.21075,0.6809699999999999,1.09682Q0.77447,0.9828899999999998,0.8786800000000001,0.8786800000000001Q0.9828899999999998,0.77447,1.09682,0.6809699999999999Q1.21075,0.5874700000000002,1.33329,0.5055900000000002Q1.45583,0.4237099999999998,1.58581,0.3542399999999999Q1.71579,0.2847599999999999,1.85195,0.2283599999999999Q1.98811,0.1719599999999999,2.129146,0.12917999999999985Q2.27018,0.08639999999999981,2.414729,0.057640000000000136Q2.559278,0.028890000000000082,2.705949,0.014450000000000074Q2.852619,0,3,0L53,0Q53.1474,0,53.2941,0.014450000000000074Q53.4407,0.028890000000000082,53.5853,0.057640000000000136Q53.7298,0.08639999999999981,53.8708,0.12917999999999985Q54.0119,0.1719599999999999,54.148,0.2283599999999999Q54.2842,0.2847599999999999,54.4142,0.3542399999999999Q54.5442,0.4237099999999998,54.6667,0.5055900000000002Q54.7892,0.5874700000000002,54.9032,0.6809699999999999Q55.0171,0.77447,55.1213,0.8786800000000001Q55.2255,0.9828899999999998,55.319,1.09682Q55.4125,1.21075,55.4944,1.33329Q55.5763,1.45583,55.6458,1.58581Q55.7152,1.71579,55.7716,1.85195Q55.828,1.98811,55.8708,2.129146Q55.9136,2.27018,55.9424,2.414729Q55.9711,2.559278,55.9856,2.705949Q56,2.852619,56,3L56,32Q56,32.147400000000005,55.9856,32.2941Q55.9711,32.4407,55.9423,32.585300000000004Q55.9136,32.7298,55.8708,32.8709Q55.828,33.0119,55.7716,33.1481Q55.7152,33.2842,55.6458,33.4142Q55.5763,33.544200000000004,55.4944,33.6667Q55.4125,33.7893,55.319,33.9032Q55.2255,34.0171,55.1213,34.121300000000005Q55.0171,34.2255,54.9032,34.319Q54.7893,34.4125,54.6667,34.4944Q54.5442,34.5763,54.4142,34.6458Q54.2842,34.715199999999996,54.148,34.7716Q54.0119,34.828,53.8708,34.8708Q53.7298,34.9136,53.5853,34.9424Q53.4407,34.9711,53.294,34.985600000000005Q53.1474,35,53,35L3,35Q2.852619,35,2.705949,34.985600000000005Q2.559278,34.9711,2.414729,34.9424Q2.27018,34.9136,2.129146,34.8708Q1.98811,34.828,1.85195,34.7716Q1.71579,34.715199999999996,1.58581,34.6458Q1.45583,34.5763,1.33329,34.4944Q1.21075,34.4125,1.09682,34.319Q0.9828899999999998,34.2255,0.8786800000000001,34.121300000000005Q0.77447,34.0171,0.6809699999999999,33.9032Q0.5874700000000002,33.7893,0.5055900000000002,33.6667Q0.4237099999999998,33.544200000000004,0.3542399999999999,33.4142Q0.2847599999999999,33.2842,0.2283599999999999,33.147999999999996Q0.1719599999999999,33.0119,0.12917999999999985,32.8709Q0.08639999999999981,32.7298,0.057640000000000136,32.585300000000004Q0.028890000000000082,32.4407,0.014450000000000074,32.2941Q0,32.147400000000005,0,32ZM50,6L6,6L6,29L50,29L50,6Z" fill-rule="evenodd" fill="#DDDDF2" fill-opacity="1"/></g><g><path d="M3.000399999989895,45.2958984375L11.000399999989895,45.2958984375Q11.147779999989895,45.2958984375,11.294449999989896,45.3103484375Q11.441119999989896,45.3247884375,11.585669999989895,45.3535384375Q11.730219999989895,45.3822984375,11.871249999989896,45.4250784375Q12.012289999989894,45.4678584375,12.148449999989895,45.5242584375Q12.284609999989895,45.5806584375,12.414589999989895,45.6501384375Q12.544569999989895,45.7196084375,12.667109999989895,45.8014884375Q12.789649999989894,45.8833684375,12.903579999989896,45.9768684375Q13.017499999989894,46.0703684375,13.121699999989895,46.1745784375Q13.225899999989895,46.2787884375,13.319399999989896,46.3927184375Q13.412899999989895,46.5066484375,13.494799999989896,46.6291884375Q13.576699999989895,46.7517284375,13.646199999989895,46.8817084375Q13.715599999989895,47.0116864375,13.771999999989895,47.1478484375Q13.828399999989895,47.2840104375,13.871199999989894,47.4250444375Q13.913999999989896,47.5660784375,13.942799999989894,47.7106275375Q13.971499999989895,47.8551761375,13.985999999989895,48.0018474375Q14.000399999989895,48.1485174375,14.000399999989895,48.2958984375Q14.000399999989895,48.4432794375,13.985999999989895,48.5899494375Q13.971499999989895,48.7366204375,13.942799999989894,48.8811684375Q13.913999999989896,49.0257184375,13.871199999989894,49.1667484375Q13.828399999989895,49.3077884375,13.771999999989895,49.4439484375Q13.715599999989895,49.5801084375,13.646199999989895,49.7100884375Q13.576699999989895,49.8400684375,13.494799999989896,49.9626084375Q13.412899999989895,50.0851484375,13.319399999989896,50.1990784375Q13.225899999989895,50.3130084375,13.121699999989895,50.4172184375Q13.017499999989894,50.5214284375,12.903579999989896,50.6149284375Q12.789649999989894,50.7084284375,12.667109999989895,50.7903084375Q12.544569999989895,50.8721884375,12.414589999989895,50.9416584375Q12.284609999989895,51.0111384375,12.148449999989895,51.0675384375Q12.012289999989894,51.1239384375,11.871249999989896,51.1667184375Q11.730219999989895,51.2094984375,11.585669999989895,51.2382584375Q11.441119999989896,51.2670084375,11.294449999989896,51.2814484375Q11.147779999989895,51.2958984375,11.000399999989895,51.2958984375L3.000399999989895,51.2958984375Q2.853018999989895,51.2958984375,2.706348999989895,51.2814484375Q2.559677999989895,51.2670084375,2.415128999989895,51.2382584375Q2.270579999989895,51.2094984375,2.129545999989895,51.1667184375Q1.9885099999898952,51.1239384375,1.8523499999898951,51.0675384375Q1.716189999989895,51.0111384375,1.586209999989895,50.9416584375Q1.456229999989895,50.8721884375,1.3336899999898952,50.7903084375Q1.2111499999898951,50.7084284375,1.097219999989895,50.6149284375Q0.983289999989895,50.5214284375,0.8790799999898953,50.4172184375Q0.7748699999898951,50.3130084375,0.681369999989895,50.1990784375Q0.5878699999898953,50.0851484375,0.5059899999898954,49.9626084375Q0.42410999998989496,49.8400684375,0.35463999998989504,49.7100884375Q0.28515999998989505,49.5801084375,0.22875999998989505,49.4439484375Q0.17235999998989504,49.3077884375,0.129579999989895,49.1667484375Q0.08679999998989496,49.0257184375,0.058039999989895286,48.8811684375Q0.029289999989895232,48.7366204375,0.014849999989895224,48.5899494375Q0.00039999998989515007,48.4432794375,0.00039999998989515007,48.2958984375Q0.00039999998989515007,48.1485174375,0.014849999989895224,48.0018474375Q0.029289999989895232,47.8551761375,0.058039999989895286,47.7106275375Q0.08679999998989496,47.5660784375,0.129579999989895,47.4250444375Q0.17235999998989504,47.2840104375,0.22875999998989505,47.1478484375Q0.28515999998989505,47.0116864375,0.35463999998989504,46.8817084375Q0.42410999998989496,46.7517284375,0.5059899999898954,46.6291884375Q0.5878699999898953,46.5066484375,0.681369999989895,46.3927184375Q0.7748699999898951,46.2787884375,0.8790799999898953,46.1745784375Q0.983289999989895,46.0703684375,1.097219999989895,45.9768684375Q1.2111499999898951,45.8833684375,1.3336899999898952,45.8014884375Q1.456229999989895,45.7196084375,1.586209999989895,45.6501384375Q1.716189999989895,45.5806584375,1.8523499999898951,45.5242584375Q1.9885099999898952,45.4678584375,2.129545999989895,45.4250784375Q2.270579999989895,45.3822984375,2.415128999989895,45.3535384375Q2.559677999989895,45.3247884375,2.706348999989895,45.3103484375Q2.853018999989895,45.2958984375,3.000399999989895,45.2958984375Z" fill-rule="evenodd" fill="#DDDDF2" fill-opacity="1"/></g><g><path d="M45.00040054321289,45.2958984375L53.00040054321289,45.2958984375Q53.14778054321289,45.2958984375,53.29445054321289,45.3103484375Q53.44112054321289,45.3247884375,53.58567054321289,45.3535384375Q53.730220543212894,45.3822984375,53.871250543212895,45.4250784375Q54.01229054321289,45.4678584375,54.14845054321289,45.5242584375Q54.28461054321289,45.5806584375,54.41459054321289,45.6501384375Q54.54457054321289,45.7196084375,54.66711054321289,45.8014884375Q54.789650543212886,45.8833684375,54.90358054321289,45.9768684375Q55.01750054321289,46.0703684375,55.12170054321289,46.1745784375Q55.22590054321289,46.2787884375,55.31940054321289,46.3927184375Q55.41290054321289,46.5066484375,55.49480054321289,46.6291884375Q55.576700543212894,46.7517284375,55.64620054321289,46.8817084375Q55.71560054321289,47.0116864375,55.77200054321289,47.1478484375Q55.828400543212894,47.2840104375,55.87120054321289,47.4250444375Q55.91400054321289,47.5660784375,55.94280054321289,47.7106275375Q55.97150054321289,47.8551761375,55.98600054321289,48.0018474375Q56.00040054321289,48.1485174375,56.00040054321289,48.2958984375Q56.00040054321289,48.4432794375,55.98600054321289,48.5899494375Q55.97150054321289,48.7366204375,55.94280054321289,48.8811684375Q55.91400054321289,49.0257184375,55.87120054321289,49.1667484375Q55.828400543212894,49.3077884375,55.77200054321289,49.4439484375Q55.71560054321289,49.5801084375,55.64620054321289,49.7100884375Q55.576700543212894,49.8400684375,55.49480054321289,49.9626084375Q55.41290054321289,50.0851484375,55.31940054321289,50.1990784375Q55.22590054321289,50.3130084375,55.12170054321289,50.4172184375Q55.01750054321289,50.5214284375,54.90358054321289,50.6149284375Q54.789650543212886,50.7084284375,54.66711054321289,50.7903084375Q54.54457054321289,50.8721884375,54.41459054321289,50.9416584375Q54.28461054321289,51.0111384375,54.14845054321289,51.0675384375Q54.01229054321289,51.1239384375,53.871250543212895,51.1667184375Q53.730220543212894,51.2094984375,53.58567054321289,51.2382584375Q53.44112054321289,51.2670084375,53.29445054321289,51.2814484375Q53.14778054321289,51.2958984375,53.00040054321289,51.2958984375L45.00040054321289,51.2958984375Q44.85301954321289,51.2958984375,44.70634954321289,51.2814484375Q44.55967854321289,51.2670084375,44.41512954321289,51.2382584375Q44.270580543212894,51.2094984375,44.12954654321289,51.1667184375Q43.98851054321289,51.1239384375,43.85235054321289,51.0675384375Q43.71619054321289,51.0111384375,43.58621054321289,50.9416584375Q43.45623054321289,50.8721884375,43.33369054321289,50.7903084375Q43.21115054321289,50.7084284375,43.09722054321289,50.6149284375Q42.98329054321289,50.5214284375,42.87908054321289,50.4172184375Q42.77487054321289,50.3130084375,42.68137054321289,50.1990784375Q42.587870543212894,50.0851484375,42.50599054321289,49.9626084375Q42.42411054321289,49.8400684375,42.35464054321289,49.7100884375Q42.28516054321289,49.5801084375,42.22876054321289,49.4439484375Q42.17236054321289,49.3077884375,42.12958054321289,49.1667484375Q42.08680054321289,49.0257184375,42.05804054321289,48.8811684375Q42.02929054321289,48.7366204375,42.01485054321289,48.5899494375Q42.00040054321289,48.4432794375,42.00040054321289,48.2958984375Q42.00040054321289,48.1485174375,42.01485054321289,48.0018474375Q42.02929054321289,47.8551761375,42.05804054321289,47.7106275375Q42.08680054321289,47.5660784375,42.12958054321289,47.4250444375Q42.17236054321289,47.2840104375,42.22876054321289,47.1478484375Q42.28516054321289,47.0116864375,42.35464054321289,46.8817084375Q42.42411054321289,46.7517284375,42.50599054321289,46.6291884375Q42.587870543212894,46.5066484375,42.68137054321289,46.3927184375Q42.77487054321289,46.2787884375,42.87908054321289,46.1745784375Q42.98329054321289,46.0703684375,43.09722054321289,45.9768684375Q43.21115054321289,45.8833684375,43.33369054321289,45.8014884375Q43.45623054321289,45.7196084375,43.58621054321289,45.6501384375Q43.71619054321289,45.5806584375,43.85235054321289,45.5242584375Q43.98851054321289,45.4678584375,44.12954654321289,45.4250784375Q44.270580543212894,45.3822984375,44.41512954321289,45.3535384375Q44.55967854321289,45.3247884375,44.70634954321289,45.3103484375Q44.85301954321289,45.2958984375,45.00040054321289,45.2958984375Z" fill-rule="evenodd" fill="#DDDDF2" fill-opacity="1"/></g></g><g><path d="M31.00040054321289,36.09080123901367L31.00040054321289,41.799801239013675Q31.00040054321289,41.94718123901367,30.98595054321289,42.093851239013674Q30.97151054321289,42.240521239013674,30.94276054321289,42.38507123901367Q30.91400054321289,42.52962123901367,30.871220543212893,42.67065123901367Q30.828440543212892,42.81169123901367,30.772040543212892,42.94785123901367Q30.715640543212892,43.08401123901367,30.64616054321289,43.21399123901367Q30.57669054321289,43.34397123901367,30.49481054321289,43.46651123901367Q30.41293054321289,43.58905123901367,30.319430543212892,43.702981239013674Q30.22593054321289,43.81691123901367,30.12172054321289,43.92112123901367Q30.01751054321289,44.025331239013674,29.90358054321289,44.11883123901367Q29.78965054321289,44.21233123901367,29.667110543212893,44.29421123901367Q29.544570543212892,44.376091239013675,29.414590543212892,44.44556123901367Q29.284610543212892,44.51504123901367,29.148450543212892,44.57144123901367Q29.01229054321289,44.62784123901367,28.87125054321289,44.67062123901367Q28.73022054321289,44.71340123901367,28.585670543212892,44.74215123901367Q28.44112254321289,44.77091123901367,28.29445154321289,44.78535123901367Q28.14778154321289,44.799801239013675,28.00040054321289,44.799801239013675Q27.85301954321289,44.799801239013675,27.70634954321289,44.78535123901367Q27.55967824321289,44.77091123901367,27.41512964321289,44.74215123901367Q27.27058054321289,44.71340123901367,27.12954654321289,44.67062123901367Q26.98851254321289,44.62784123901367,26.85235054321289,44.57144123901367Q26.71618854321289,44.51504123901367,26.58621054321289,44.44556123901367Q26.45623054321289,44.376091239013675,26.333690543212892,44.29421123901367Q26.21115054321289,44.21233123901367,26.09722054321289,44.11883123901367Q25.983290543212892,44.025331239013674,25.87908054321289,43.92112123901367Q25.77487054321289,43.81691123901367,25.68137054321289,43.702981239013674Q25.58787054321289,43.58905123901367,25.505990543212892,43.46651123901367Q25.42411054321289,43.34397123901367,25.35464054321289,43.21399123901367Q25.28516054321289,43.08401123901367,25.22876054321289,42.94785123901367Q25.17236054321289,42.81169123901367,25.12958054321289,42.67065123901367Q25.08680054321289,42.52962123901367,25.05804054321289,42.38507123901367Q25.02929054321289,42.240521239013674,25.01485054321289,42.093851239013674Q25.00040054321289,41.94718123901367,25.00040054321289,41.799801239013675L25.00040054321289,36.09080123901367Q25.00040054321289,35.94342023901367,25.01485054321289,35.79675023901367Q25.02929054321289,35.65007923901367,25.05804054321289,35.50553023901367Q25.08680054321289,35.360981239013675,25.12958054321289,35.21994723901367Q25.17236054321289,35.07891123901367,25.22876054321289,34.942751239013674Q25.28516054321289,34.80659123901367,25.35464054321289,34.676611239013674Q25.42411054321289,34.54663123901367,25.505990543212892,34.42409123901367Q25.58787054321289,34.30155123901367,25.68137054321289,34.18762123901367Q25.77487054321289,34.07369123901367,25.87908054321289,33.969481239013675Q25.983290543212892,33.86527123901367,26.09722054321289,33.771771239013674Q26.21115054321289,33.678271239013675,26.333690543212892,33.59639123901367Q26.45623054321289,33.51451123901367,26.58621054321289,33.44504123901367Q26.71618854321289,33.37556123901367,26.85235054321289,33.319161239013674Q26.98851254321289,33.26276123901367,27.12954654321289,33.21998123901367Q27.27058054321289,33.17720123901367,27.41512964321289,33.14844123901367Q27.55967824321289,33.11969123901367,27.70634954321289,33.10525123901367Q27.85301954321289,33.09080123901367,28.00040054321289,33.09080123901367Q28.14778154321289,33.09080123901367,28.29445154321289,33.10525123901367Q28.44112254321289,33.11969123901367,28.585670543212892,33.14844123901367Q28.73022054321289,33.17720123901367,28.87125054321289,33.21998123901367Q29.01229054321289,33.26276123901367,29.148450543212892,33.319161239013674Q29.284610543212892,33.37556123901367,29.414590543212892,33.44504123901367Q29.544570543212892,33.51451123901367,29.667110543212893,33.59639123901367Q29.78965054321289,33.678271239013675,29.90358054321289,33.771771239013674Q30.01751054321289,33.86527123901367,30.12172054321289,33.969481239013675Q30.22593054321289,34.07369123901367,30.319430543212892,34.18762123901367Q30.41293054321289,34.30155123901367,30.49481054321289,34.42409123901367Q30.57669054321289,34.54663123901367,30.64616054321289,34.676611239013674Q30.715640543212892,34.80659123901367,30.772040543212892,34.942751239013674Q30.828440543212892,35.07891123901367,30.871220543212893,35.21994723901367Q30.91400054321289,35.360981239013675,30.94276054321289,35.50553023901367Q30.97151054321289,35.65007923901367,30.98595054321289,35.79675023901367Q31.00040054321289,35.94342023901367,31.00040054321289,36.09080123901367Z" fill-rule="evenodd" fill="#DDDDF2" fill-opacity="1"/></g><g><path d="M17,53L17,43Q17,42.852619,17.01445,42.705949Q17.02889,42.559278,17.05764,42.414729Q17.0864,42.27018,17.129179999999998,42.129146Q17.17196,41.98811,17.22836,41.85195Q17.28476,41.71579,17.35424,41.58581Q17.42371,41.45583,17.50559,41.33329Q17.58747,41.21075,17.68097,41.09682Q17.77447,40.98289,17.87868,40.87868Q17.98289,40.77447,18.09682,40.68097Q18.21075,40.58747,18.33329,40.50559Q18.45583,40.42371,18.58581,40.35424Q18.71579,40.28476,18.85195,40.22836Q18.98811,40.17196,19.129146,40.12918Q19.27018,40.0864,19.414729,40.05764Q19.559278,40.02889,19.705949,40.01445Q19.852619,40,20,40L36,40Q36.147400000000005,40,36.2941,40.01445Q36.4407,40.02889,36.585300000000004,40.05764Q36.7298,40.0864,36.8709,40.12918Q37.0119,40.17196,37.147999999999996,40.22836Q37.2842,40.28476,37.4142,40.35424Q37.544200000000004,40.42371,37.6667,40.50559Q37.7893,40.58747,37.9032,40.68097Q38.0171,40.77447,38.121300000000005,40.87868Q38.2255,40.98289,38.319,41.09682Q38.4125,41.21075,38.4944,41.33329Q38.5763,41.45583,38.6458,41.58581Q38.715199999999996,41.71579,38.7716,41.85195Q38.828,41.98811,38.8708,42.129146Q38.9136,42.27018,38.9424,42.414729Q38.9711,42.559278,38.985600000000005,42.705949Q39,42.852619,39,43L39,53Q39,53.1474,38.985600000000005,53.2941Q38.9711,53.4407,38.9424,53.585300000000004Q38.9136,53.7298,38.8708,53.8709Q38.828,54.0119,38.7716,54.147999999999996Q38.715199999999996,54.2842,38.6458,54.4142Q38.5763,54.544200000000004,38.4944,54.6667Q38.4125,54.7893,38.319,54.9032Q38.2255,55.0171,38.121300000000005,55.1213Q38.0171,55.2255,37.9032,55.319Q37.7893,55.4125,37.6667,55.4944Q37.544200000000004,55.5763,37.4142,55.6458Q37.2842,55.715199999999996,37.147999999999996,55.7716Q37.0119,55.828,36.8709,55.8708Q36.7298,55.9136,36.585300000000004,55.9424Q36.4407,55.9711,36.2941,55.9856Q36.147400000000005,56,36,56L20,56Q19.852619,56,19.705949,55.9856Q19.559278,55.9711,19.414729,55.9424Q19.27018,55.9136,19.129146,55.8708Q18.98811,55.828,18.85195,55.7716Q18.71579,55.715199999999996,18.58581,55.6458Q18.45583,55.5763,18.33329,55.4944Q18.21075,55.4125,18.09682,55.319Q17.98289,55.2255,17.87868,55.1213Q17.77447,55.0171,17.68097,54.9032Q17.58747,54.7893,17.50559,54.6667Q17.42371,54.544200000000004,17.35424,54.4142Q17.28476,54.2842,17.22836,54.147999999999996Q17.17196,54.0119,17.129179999999998,53.8709Q17.0864,53.7298,17.05764,53.585300000000004Q17.02889,53.4407,17.01445,53.2941Q17,53.1474,17,53ZM33,46L23,46L23,50L33,50L33,46Z" fill-rule="evenodd" fill="#DDDDF2" fill-opacity="1"/></g></g></svg>