<svg xmlns="http://www.w3.org/2000/svg" xmlns:xlink="http://www.w3.org/1999/xlink" fill="none" version="1.1" width="55.019622802734375" height="56.000244140625" viewBox="0 0 55.019622802734375 56.000244140625"><g><g><path d="M51.52820655651092,53.336443536376954L55.00070655651093,22.537460536376955Q55.01960655651092,22.369932536376954,55.01960655651092,22.201343536376953Q55.01960655651092,22.053962536376954,55.00520655651093,21.907292536376954Q54.99070655651092,21.760621536376952,54.96200655651093,21.616072536376954Q54.933206556510925,21.471523536376953,54.890406556510925,21.33048953637695Q54.847606556510925,21.189453536376952,54.79120655651093,21.053293536376952Q54.734806556510925,20.91713353637695,54.66540655651092,20.78715353637695Q54.595906556510926,20.657173536376952,54.51400655651093,20.534633536376955Q54.432106556510924,20.412093536376954,54.338606556510925,20.298163536376954Q54.245106556510926,20.184233536376954,54.14090655651093,20.080023536376952Q54.03670655651093,19.975813536376954,53.92280655651093,19.88231353637695Q53.80890655651093,19.788813536376953,53.68630655651093,19.706933536376955Q53.563806556510926,19.625053536376953,53.43380655651092,19.555583536376954Q53.30380655651093,19.48610353637695,53.16770655651093,19.42970353637695Q53.03150655651093,19.37330353637695,52.89050655651093,19.33052353637695Q52.74940655651093,19.287743536376954,52.604906556510926,19.258983536376952Q52.46030655651092,19.230233536376954,52.31370655651092,19.215793536376953Q52.16700655651093,19.201343536376953,52.01960655651092,19.201343536376953L3.0000065565109253,19.201343536376953Q2.831370556510925,19.201343536376953,2.6637965565109254,19.22024353637695Q2.5173445565109254,19.23676353637695,2.3732165565109256,19.26755353637695Q2.2290885565109253,19.298343536376954,2.088672556510925,19.343113536376954Q1.9482565565109253,19.387883536376954,1.8129065565109252,19.446203536376952Q1.6775565565109254,19.504523536376954,1.5485665565109252,19.57582353637695Q1.4195865565109254,19.647133536376952,1.2982165565109254,19.730733536376952Q1.1768365565109253,19.814343536376953,1.0642465565109254,19.90943353637695Q0.9516565565109252,20.004533536376954,0.8489265565109254,20.110213536376953Q0.7461865565109251,20.215883536376953,0.6543165565109255,20.331123536376953Q0.5624365565109253,20.446363536376953,0.4822965565109252,20.570043536376954Q0.4021565565109251,20.693733536376953,0.3345265565109252,20.824683536376952Q0.26689655651092536,20.955623536376955,0.21242655651092512,21.092573536376953Q0.15794655651092526,21.229518536376954,0.11716655651092545,21.37114353637695Q0.07637655651092512,21.512768536376953,0.049676556510925174,21.657708536376955Q0.022966556510925162,21.802649536376954,0.010596556510925392,21.949509536376954Q-0.0017734434890748219,22.096370536376952,0.000306556510925482,22.243735936376954Q0.0023865565109253417,22.391101536376954,0.01890655651092521,22.537553536376954L3.492434556510925,53.33654353637695Q3.507769556510925,53.47254353637695,3.5354165565109255,53.606543536376954Q3.563064556510925,53.740543536376954,3.6027955565109253,53.87144353637696Q3.6425265565109255,54.00244353637696,3.694012556510925,54.12914353637696Q3.745497556510925,54.255943536376954,3.808308556510925,54.377543536376955Q3.8711195565109255,54.49904353637695,3.944736556510925,54.61444353637695Q4.018356556510925,54.72974353637695,4.102166556510925,54.837943536376955Q4.185966556510925,54.946043536376955,4.279276556510926,55.04614353637695Q4.372586556510925,55.14624353637695,4.4746165565109255,55.237343536376954Q4.576646556510926,55.328543536376955,4.686546556510925,55.41004353637695Q4.796456556510925,55.49154353637695,4.913326556510925,55.562743536376956Q5.030186556510925,55.63384353637695,5.153056556510926,55.694143536376956Q5.275916556510925,55.75434353637695,5.403746556510925,55.80314353637695Q5.531576556510926,55.85194353637695,5.663326556510926,55.88884353637695Q5.795066556510925,55.92584353637695,5.929626556510925,55.95064353637695Q6.064186556510926,55.97544353637695,6.200446556510926,55.98784353637695Q6.336706556510926,56.00034353637695,6.4735365565109255,56.00034353637695L48.547106556510926,56.00034353637695Q48.68390655651093,56.00034353637695,48.820206556510925,55.98784353637695Q48.95640655651093,55.97544353637695,49.091006556510926,55.95064353637695Q49.22550655651092,55.92584353637695,49.35730655651093,55.88884353637695Q49.48900655651092,55.85194353637695,49.616906556510926,55.80314353637695Q49.74470655651093,55.75434353637695,49.86760655651093,55.69404353637695Q49.990406556510926,55.63384353637695,50.10730655651093,55.56264353637695Q50.22420655651093,55.49154353637695,50.334106556510925,55.41004353637695Q50.44400655651093,55.328543536376955,50.546006556510925,55.237343536376954Q50.64800655651093,55.146143536376954,50.74130655651093,55.046043536376956Q50.83470655651092,54.946043536376955,50.91850655651093,54.83784353637695Q51.00230655651092,54.729643536376955,51.07590655651092,54.61434353637695Q51.14950655651093,54.49904353637695,51.212306556510924,54.37744353637695Q51.27510655651093,54.25584353637695,51.326606556510924,54.12914353637696Q51.37810655651093,54.002343536376955,51.417806556510925,53.871343536376955Q51.457606556510925,53.74044353637696,51.485206556510924,53.60644353637696Q51.512806556510924,53.47244353637696,51.52820655651092,53.336443536376954ZM48.66240655651092,25.201343536376953L45.86630655651093,50.00034353637695L9.154216556510924,50.00034353637695L6.357366556510925,25.201343536376953L48.66240655651092,25.201343536376953Z" fill-rule="evenodd" fill="#DDDDF2" fill-opacity="1"/></g><g><path d="M45.174779280090334,13.838044140630052L45.174779280090334,22.201044140630053Q45.174779280090334,22.348444140630054,45.18927928009033,22.495144140630053Q45.203679280090334,22.641744140630053,45.23247928009033,22.786344140630053Q45.26117928009033,22.930844140630054,45.30397928009033,23.071944140630052Q45.34677928009033,23.212944140630054,45.403179280090335,23.349044140630053Q45.45957928009033,23.48524414063005,45.52907928009033,23.615244140630054Q45.59847928009033,23.745244140630053,45.680379280090335,23.86774414063005Q45.76227928009033,23.990344140630054,45.85577928009033,24.10424414063005Q45.94927928009033,24.218144140630052,46.05347928009033,24.32234414063005Q46.157679280090335,24.426544140630053,46.27167928009033,24.520044140630052Q46.38557928009033,24.61354414063005,46.508079280090335,24.695444140630052Q46.630679280090334,24.777344140630053,46.76057928009033,24.846844140630054Q46.89057928009033,24.916244140630052,47.02677928009033,24.972644140630052Q47.16287928009033,25.029044140630052,47.30397928009033,25.071844140630052Q47.44497928009033,25.114644140630052,47.589579280090334,25.143444140630052Q47.734079280090334,25.172144140630053,47.88077928009033,25.18664414063005Q48.02747928009033,25.201044140630053,48.174779280090334,25.201044140630053Q48.32217928009033,25.201044140630053,48.468879280090334,25.18664414063005Q48.615479280090334,25.172144140630053,48.76007928009033,25.143444140630052Q48.904679280090335,25.114644140630052,49.04567928009033,25.071844140630052Q49.18667928009033,25.029044140630052,49.32287928009033,24.972644140630052Q49.45897928009033,24.916244140630052,49.588979280090335,24.846844140630054Q49.71897928009033,24.777344140630053,49.84147928009033,24.695444140630052Q49.96407928009033,24.61354414063005,50.07797928009033,24.520044140630052Q50.19187928009033,24.426544140630053,50.29607928009033,24.32234414063005Q50.400379280090334,24.218144140630052,50.49387928009033,24.10424414063005Q50.58737928009033,23.990344140630054,50.66917928009033,23.86774414063005Q50.75107928009033,23.745244140630053,50.820579280090335,23.615244140630054Q50.89007928009033,23.48524414063005,50.94647928009033,23.349044140630053Q51.00287928009033,23.212944140630054,51.04557928009033,23.071944140630052Q51.08837928009033,22.930844140630054,51.11717928009033,22.786344140630053Q51.145879280090334,22.641744140630053,51.16037928009033,22.495144140630053Q51.174779280090334,22.348444140630054,51.174779280090334,22.201044140630053L51.174779280090334,10.838044140630053Q51.174779280090334,10.690664140630052,51.16037928009033,10.543994140630051Q51.145879280090334,10.397324140630053,51.11717928009033,10.252774140630052Q51.08837928009033,10.108224140630053,51.04567928009033,9.967194140630053Q51.00287928009033,9.826154140630052,50.94647928009033,9.689994140630052Q50.89007928009033,9.553834140630052,50.820579280090335,9.423854140630052Q50.75107928009033,9.293874140630052,50.66917928009033,9.171334140630051Q50.58737928009033,9.048794140630052,50.49387928009033,8.934864140630053Q50.400379280090334,8.820934140630053,50.29607928009033,8.716724140630053Q50.19187928009033,8.612514140630052,50.07797928009033,8.519014140630052Q49.96407928009033,8.425514140630053,49.84147928009033,8.343634140630051Q49.71897928009033,8.261754140630053,49.588979280090335,8.192284140630052Q49.45897928009033,8.122804140630052,49.32287928009033,8.066404140630052Q49.18667928009033,8.010004140630052,49.04567928009033,7.967224140630052Q48.904679280090335,7.924444140630053,48.76007928009033,7.895684140630053Q48.615479280090334,7.866934140630052,48.468879280090334,7.852494140630053Q48.32217928009033,7.8380441406300525,48.174779280090334,7.8380441406300525L30.705779280090333,7.8380441406300525L23.992679280090332,0.9120941406300522Q23.78297928009033,0.6956841406300525,23.53437928009033,0.5253141406300523Q23.28567928009033,0.35495414063005226,23.00817928009033,0.23745414063005255Q22.73067928009033,0.11994414063005232,22.435279280090334,0.059994140630052595Q22.139879280090334,0.00004414063005242497,21.838579280090332,0.00004414063005242497L6.846379280090332,0.00004414063005242497Q6.698998280090332,0.00004414063005242497,6.552328280090332,0.014494140630052499Q6.405657280090332,0.028934140630052507,6.261108280090332,0.05768414063005256Q6.116559280090332,0.08644414063005224,5.9755252800903325,0.12922414063005228Q5.834489280090332,0.17200414063005232,5.6983292800903325,0.22840414063005232Q5.562169280090332,0.2848041406300523,5.432189280090332,0.3542841406300523Q5.302209280090332,0.42375414063005223,5.179669280090332,0.5056341406300526Q5.057129280090332,0.5875141406300526,4.943199280090332,0.6810141406300523Q4.829269280090331,0.7745141406300524,4.725059280090332,0.8787241406300526Q4.620849280090332,0.9829341406300522,4.527349280090332,1.0968641406300523Q4.433849280090332,1.2107941406300524,4.351969280090332,1.3333341406300525Q4.270089280090332,1.4558741406300524,4.200619280090332,1.5858541406300524Q4.131139280090332,1.7158341406300524,4.074739280090332,1.8519941406300524Q4.018339280090332,1.9881541406300525,3.975559280090332,2.1291901406300524Q3.932779280090332,2.2702241406300523,3.904019280090332,2.4147731406300523Q3.875269280090332,2.5593221406300524,3.860829280090332,2.7059931406300524Q3.846379280090332,2.852663140630052,3.846379280090332,3.0000441406300524L3.846379280090332,22.201044140630053Q3.846379280090332,22.348444140630054,3.860829280090332,22.495144140630053Q3.875269280090332,22.641744140630053,3.904019280090332,22.786344140630053Q3.932779280090332,22.930844140630054,3.975559280090332,23.071944140630052Q4.018339280090332,23.212944140630054,4.074739280090332,23.349044140630053Q4.131139280090332,23.48524414063005,4.200619280090332,23.615244140630054Q4.270089280090332,23.745244140630053,4.351969280090332,23.86774414063005Q4.433849280090332,23.990344140630054,4.527349280090332,24.10424414063005Q4.620849280090332,24.218144140630052,4.725059280090332,24.32234414063005Q4.829269280090331,24.426544140630053,4.943199280090332,24.520044140630052Q5.057129280090332,24.61354414063005,5.179669280090332,24.695444140630052Q5.302209280090332,24.777344140630053,5.432189280090332,24.846844140630054Q5.562169280090332,24.916244140630052,5.6983292800903325,24.972644140630052Q5.834489280090332,25.029044140630052,5.9755252800903325,25.071844140630052Q6.116559280090332,25.114644140630052,6.261108280090332,25.143444140630052Q6.405657280090332,25.172144140630053,6.552328280090332,25.18664414063005Q6.698998280090332,25.201044140630053,6.846379280090332,25.201044140630053Q6.993760280090332,25.201044140630053,7.140430280090332,25.18664414063005Q7.287101280090332,25.172144140630053,7.431650280090332,25.143444140630052Q7.576199280090332,25.114644140630052,7.717233280090332,25.071844140630052Q7.858269280090332,25.029044140630052,7.994429280090332,24.972644140630052Q8.130589280090332,24.916244140630052,8.260569280090332,24.846844140630054Q8.390549280090331,24.777344140630053,8.513089280090332,24.695444140630052Q8.635629280090331,24.61354414063005,8.749559280090333,24.520044140630052Q8.863489280090333,24.426544140630053,8.967699280090333,24.32234414063005Q9.071909280090331,24.218144140630052,9.165409280090332,24.10424414063005Q9.258909280090332,23.990344140630054,9.340789280090332,23.86774414063005Q9.422669280090332,23.745244140630053,9.492139280090331,23.615244140630054Q9.561619280090332,23.48524414063005,9.618019280090332,23.349044140630053Q9.674419280090332,23.212944140630054,9.717199280090332,23.071944140630052Q9.759979280090333,22.930844140630054,9.788739280090333,22.786344140630053Q9.817489280090332,22.641744140630053,9.831929280090332,22.495144140630053Q9.846379280090332,22.348444140630054,9.846379280090332,22.201044140630053L9.846379280090332,6.000044140630052L20.568379280090333,6.000044140630052L27.28137928009033,12.925994140630053Q27.491179280090332,13.142444140630053,27.739779280090332,13.312744140630052Q27.98837928009033,13.483144140630053,28.26597928009033,13.600644140630052Q28.54347928009033,13.718144140630052,28.83887928009033,13.778044140630053Q29.134179280090333,13.838044140630052,29.435579280090334,13.838044140630052L45.174779280090334,13.838044140630052Z" fill-rule="evenodd" fill="#DDDDF2" fill-opacity="1"/></g></g></svg>