<svg xmlns="http://www.w3.org/2000/svg" xmlns:xlink="http://www.w3.org/1999/xlink" fill="none" version="1.1" width="56.000244140625" height="56" viewBox="0 0 56.000244140625 56"><g><g><path d="M21.505494140613127,40.63998535888672Q20.657994140613127,38.55079535888672,19.053594140613125,36.946734358886715L19.053194140613126,36.94640235888672Q17.448894140613127,35.34216535888672,15.359794140613126,34.49479535888672Q13.343794140613126,33.67705535888672,11.161244140613126,33.67705535888672Q8.978684140613126,33.67705535888672,6.962674140613126,34.49479535888672Q4.873404140613125,35.34225535888672,3.2689241406131258,36.94673535888672Q1.6647341406131257,38.550925358886715,0.8174541406131257,40.64028535888672Q-0.000005859386874362826,42.656095358886716,-0.000005859386874362826,44.83855535888672Q-0.000005859386874362826,47.02105535888672,0.8174541406131257,49.03685535888672Q1.6647341406131257,51.12615535888672,3.2689231406131256,52.73035535888672Q4.873404140613125,54.33485535888672,6.962674140613126,55.18235535888672Q8.978684140613126,56.00005535888672,11.161244140613126,56.00005535888672Q13.343794140613126,56.00005535888672,15.359794140613126,55.18235535888672Q17.449094140613127,54.33485535888672,19.053194140613126,52.73075535888672Q20.657894140613127,51.12655535888672,21.505494140613127,49.03715535888672Q22.323194140613126,47.021155358886716,22.323194140613126,44.83855535888672Q22.323194140613126,42.65592535888672,21.505494140613127,40.63998535888672ZM11.161244140613126,39.67705535888672Q13.298594140613126,39.67705535888672,14.810894140613126,41.18937535888672L14.811294140613125,41.18970535888672Q16.323194140613126,42.70122535888672,16.323194140613126,44.83855535888672Q16.323194140613126,46.97585535888672,14.811294140613125,48.48735535888672Q13.298594140613126,50.00005535888672,11.161244140613126,50.00005535888672Q9.023884140613125,50.00005535888672,7.5115641406131255,48.487755358886716Q5.999994140613126,46.976155358886714,5.999994140613126,44.83855535888672Q5.999994140613126,42.70094535888672,7.5115641406131255,41.18937535888672Q9.023884140613125,39.67705535888672,11.161244140613126,39.67705535888672Z" fill-rule="evenodd" fill="#DDDDF2" fill-opacity="1"/></g><g><path d="M42.75054370117188,6.03575591468811C40.75954370117187,8.02675591468811,40.75954370117187,11.257755914688111,42.75054370117188,13.248755914688111C44.742543701171876,15.24075591468811,47.97254370117187,15.24075591468811,49.96454370117188,13.248755914688111C51.956593701171876,11.257755914688111,51.956593701171876,8.02675591468811,49.96454370117188,6.03575591468811C47.97254370117187,4.04375591468811,44.742543701171876,4.04375591468811,42.75054370117188,6.03575591468811Z" fill="#DDDDF2" fill-opacity="1"/></g><g><path d="M19.053564033813476,0.8787358593892494Q18.949354033813478,0.7745258593892492,18.835424033813474,0.6810258593892491Q18.721494033813478,0.5875258593892494,18.598954033813477,0.5056458593892494Q18.476414033813477,0.42376585938924904,18.346434033813477,0.3542958593892491Q18.216454033813477,0.28481585938924914,18.080294033813477,0.22841585938924913Q17.944134033813476,0.17201585938924913,17.803094033813476,0.12923585938924909Q17.66206403381348,0.08645585938924905,17.517514033813477,0.05769585938924937Q17.372964033813478,0.028945859389249318,17.226294033813478,0.01450585938924931Q17.079624033813477,0.00005585938924923539,16.932244033813475,0.00005585938924923539Q16.784864033813477,0.00005585938924923539,16.638194033813477,0.01450585938924931Q16.491524033813477,0.028945859389249318,16.346974033813478,0.05769585938924937Q16.202424033813475,0.08645585938924905,16.061394033813478,0.12923585938924909Q15.920354033813476,0.17201585938924913,15.784194033813478,0.22841585938924913Q15.648034033813477,0.28481585938924914,15.518054033813478,0.3542958593892491Q15.388074033813478,0.42376585938924904,15.265534033813477,0.5056458593892494Q15.142994033813476,0.5875258593892494,15.029064033813476,0.6810258593892491Q14.915134033813477,0.7745258593892492,14.810924033813476,0.8787358593892494Q10.711714033813477,4.97794585938925,8.549638033813476,10.30953585938925Q6.462244033813477,15.456955859389248,6.462244033813477,21.034055859389248Q6.462244033813477,26.61115585938925,8.549637033813477,31.75855585938925Q10.711704033813476,37.09015585938925,14.810924033813476,41.18935585938925Q18.910254033813477,45.28825585938925,24.24184403381348,47.45015585938925Q29.389244033813476,49.53735585938925,34.96624403381348,49.53735585938925Q40.54324403381348,49.53735585938925,45.69064403381348,47.45015585938925Q51.02224403381348,45.28825585938925,55.121444033813475,41.18945585938925Q55.225644033813474,41.08525585938925,55.31914403381348,40.97135585938925Q55.41264403381348,40.85745585938925,55.494544033813476,40.73485585938925Q55.57644403381347,40.61235585938925,55.64594403381348,40.48235585938925Q55.715444033813476,40.35235585938925,55.77184403381348,40.21625585938925Q55.828244033813476,40.08005585938925,55.871044033813476,39.93905585938925Q55.913844033813476,39.79805585938925,55.942544033813476,39.65345585938925Q55.97134403381347,39.508955859389246,55.985744033813475,39.36225585938925Q56.00024403381347,39.21555585938925,56.00024403381347,39.06815585938925Q56.00024403381347,38.92085585938925,55.98584403381348,38.774155859389246Q55.97134403381347,38.62745585938925,55.94264403381348,38.48295585938925Q55.913844033813476,38.338355859389246,55.87114403381348,38.19735585938925Q55.82834403381348,38.056255859389246,55.771944033813476,37.92015585938925Q55.71554403381348,37.78395585938925,55.646044033813475,37.65395585938925Q55.57664403381348,37.52405585938925,55.494744033813475,37.40145585938925Q55.41284403381348,37.27895585938925,55.31934403381348,37.16495585938925Q55.22584403381347,37.05105585938925,55.121644033813475,36.94685585938925L19.053564033813476,0.8787358593892494ZM17.070254033813477,7.380705859389249Q15.248124033813475,9.75737585938925,14.109854033813477,12.56432585938925Q12.462244033813477,16.62725585938925,12.462244033813477,21.034055859389248Q12.462244033813477,25.44085585938925,14.109844033813477,29.503755859389248Q15.814684033813476,33.70785585938925,19.053564033813476,36.94675585938925Q22.292344033813478,40.18515585938925,26.496444033813475,41.88985585938925Q30.559444033813477,43.53725585938925,34.96624403381348,43.53735585938925Q39.37304403381347,43.53735585938925,43.436044033813474,41.88985585938925Q46.242844033813476,40.75175585938925,48.61944403381348,38.92995585938925L17.070254033813477,7.380705859389249Z" fill-rule="evenodd" fill="#DDDDF2" fill-opacity="1"/></g><g><path d="M48.47934347229004,11.763575783081055Q48.68834347229004,11.554645783081055,48.85244347229004,11.308965783081055Q49.01664347229004,11.063285783081055,49.12964347229004,10.790305783081054Q49.24274347229004,10.517323783081055,49.30044347229004,10.227526783081055Q49.358043472290035,9.937729783081055,49.358043472290035,9.642255783081055Q49.358043472290035,9.494874783081055,49.34364347229004,9.348204783081055Q49.32914347229004,9.201533783081056,49.30044347229004,9.056984783081054Q49.27164347229004,8.912435783081055,49.22884347229004,8.771401783081055Q49.18604347229004,8.630365783081055,49.12964347229004,8.494205783081055Q49.07324347229004,8.358045783081055,49.00384347229004,8.228065783081055Q48.93434347229004,8.098085783081055,48.85244347229004,7.9755457830810546Q48.77054347229004,7.853005783081055,48.67704347229004,7.739075783081055Q48.58354347229004,7.625145783081054,48.47934347229004,7.520935783081055Q48.37514347229004,7.416725783081055,48.26124347229004,7.323225783081055Q48.14734347229004,7.229725783081054,48.02474347229004,7.1478457830810544Q47.90224347229004,7.0659657830810545,47.77224347229004,6.996495783081055Q47.64224347229004,6.927015783081055,47.50604347229004,6.870615783081055Q47.36994347229004,6.814215783081055,47.22894347229004,6.7714357830810545Q47.08784347229004,6.728655783081054,46.94334347229004,6.699895783081055Q46.79874347229004,6.671145783081055,46.652143472290035,6.656705783081055Q46.50544347229004,6.642255783081055,46.358043472290035,6.642255783081055Q46.06254347229004,6.642255783081055,45.77274347229004,6.699895783081055Q45.48294347229004,6.757545783081055,45.21004347229004,6.870615783081055Q44.93701347229004,6.983685783081055,44.69133347229004,7.1478457830810544Q44.44565347229004,7.312005783081055,44.23672347229004,7.520935783081055L32.84472347229004,18.912935783081053Q32.63579347229004,19.121865783081056,32.47163347229004,19.367545783081056Q32.30747347229004,19.613225783081056,32.19440347229004,19.886255783081054Q32.08133347229004,20.159155783081054,32.02368347229004,20.448955783081054Q31.96604347229004,20.738755783081054,31.96604347229004,21.034255783081054Q31.96604347229004,21.181655783081055,31.98049347229004,21.328355783081054Q31.99493347229004,21.474955783081057,32.02368347229004,21.619555783081054Q32.05244347229004,21.764055783081055,32.09522347229004,21.905155783081057Q32.13800347229004,22.046155783081055,32.19440347229004,22.182255783081054Q32.25080347229004,22.318455783081056,32.320283472290036,22.448455783081055Q32.38975347229004,22.578455783081054,32.47163347229004,22.700955783081056Q32.55351347229004,22.823555783081055,32.64701347229004,22.937455783081056Q32.74051347229004,23.051355783081057,32.84472347229004,23.155555783081056Q32.94893347229004,23.259755783081054,33.06286347229004,23.353255783081053Q33.176793472290036,23.446755783081056,33.29933347229004,23.528655783081057Q33.42187347229004,23.610555783081054,33.55185347229004,23.680055783081055Q33.68183347229004,23.749455783081054,33.81799347229004,23.805855783081057Q33.95415347229004,23.862255783081054,34.09518947229004,23.905055783081053Q34.23622347229004,23.947855783081053,34.38077247229004,23.976655783081057Q34.52532147229004,24.005355783081054,34.671992472290036,24.019855783081056Q34.818662472290036,24.034255783081054,34.96604347229004,24.034255783081054Q35.26151747229004,24.034255783081054,35.55131447229004,23.976655783081057Q35.84111147229004,23.918955783081053,36.11409347229004,23.805855783081057Q36.38707347229004,23.692855783081054,36.63275347229004,23.528655783081057Q36.87843347229004,23.364555783081055,37.087363472290036,23.155555783081056L48.47934347229004,11.763575783081055L48.47934347229004,11.763575783081055Z" fill-rule="evenodd" fill="#DDDDF2" fill-opacity="1"/></g></g></svg>